<svg id="圖層_1" data-name="圖層 1" xmlns="http://www.w3.org/2000/svg" viewBox="0 0 99.21 99.21"><defs><style>.cls-1{fill:#231815;}.cls-2,.cls-3{fill:#fff;}.cls-3{font-size:11.45px;font-family:Montserrat-SemiBold, Montserrat;font-weight:600;}</style></defs><title>hurley furniture</title><path class="cls-1" d="M51.83,1,57,.18A13.62,13.62,0,0,1,67.9,3.1L72,6.44a13.75,13.75,0,0,0,3.86,2.22l4.92,1.85a13.62,13.62,0,0,1,8,8l1.85,4.93a13.59,13.59,0,0,0,2.23,3.85l3.34,4.07A13.63,13.63,0,0,1,99,42.19l-.86,5.19a13.84,13.84,0,0,0,0,4.45L99,57A13.65,13.65,0,0,1,96.12,67.9L92.78,72a13.78,13.78,0,0,0-2.23,3.86L88.7,80.74a13.6,13.6,0,0,1-8,8l-4.92,1.85A13.78,13.78,0,0,0,72,92.78L67.9,96.12A13.65,13.65,0,0,1,57,99l-5.19-.86a13.84,13.84,0,0,0-4.45,0L42.19,99a13.63,13.63,0,0,1-10.87-2.91l-4.07-3.34a13.59,13.59,0,0,0-3.85-2.23L18.47,88.7a13.62,13.62,0,0,1-8-8L8.66,75.82A13.75,13.75,0,0,0,6.44,72L3.1,67.9A13.62,13.62,0,0,1,.18,57L1,51.83a13.3,13.3,0,0,0,0-4.45L.18,42.19A13.6,13.6,0,0,1,3.1,31.32l3.34-4.07A13.56,13.56,0,0,0,8.66,23.4l1.85-4.93a13.65,13.65,0,0,1,8-8L23.4,8.66a13.56,13.56,0,0,0,3.85-2.22L31.32,3.1A13.6,13.6,0,0,1,42.19.18L47.38,1A13.3,13.3,0,0,0,51.83,1Z"/><polygon class="cls-2" points="64.56 49.94 57.97 35.11 41.24 35.11 34.65 49.94 64.56 49.94"/><path class="cls-2" d="M57.66,58.06a8,8,0,0,1-16.1,0c0-4.45,8-13,8-13S57.66,53.61,57.66,58.06Z"/><path class="cls-1" d="M53.65,49.94a63,63,0,0,0-4-4.83,61.69,61.69,0,0,0-4,4.83Z"/><text class="cls-3" transform="translate(24.78 31.5) rotate(-45.21)">H</text><text class="cls-3" transform="matrix(0.91, -0.42, 0.42, 0.91, 32.68, 23.98)">U</text><text class="cls-3" transform="translate(42.5 19.77) rotate(-5.48)">R</text><text class="cls-3" transform="translate(52.56 19.18) rotate(11.92)">L</text><text class="cls-3" transform="translate(60.93 21.15) rotate(28.95)">E</text><text class="cls-3" transform="translate(68.93 25.87) rotate(46.24)">Y</text><text class="cls-3" transform="translate(12.06 60.74) rotate(68.13)">F</text><text class="cls-3" transform="translate(16.66 70.92) rotate(50.47)">U</text><text class="cls-3" transform="translate(25.45 80.48) rotate(31.97)">R</text><text class="cls-3" transform="translate(36.26 86.53) rotate(13.04)">N</text><text class="cls-3" transform="translate(48.94 88.62) rotate(-1.68)">I</text><text class="cls-3" transform="translate(56.01 88.21) rotate(-14.43)">T</text><text class="cls-3" transform="matrix(0.85, -0.52, 0.52, 0.85, 66.17, 85.19)">U</text><text class="cls-3" transform="translate(76.85 77.79) rotate(-50.13)">R</text><text class="cls-3" transform="matrix(0.38, -0.92, 0.92, 0.38, 84.18, 68.02)">E</text><circle class="cls-2" cx="15.16" cy="42.92" r="1.84"/><circle class="cls-2" cx="84.05" cy="42.92" r="1.84"/></svg>